<?xml version="1.0" ?><svg height="50px" id="Слой_1" style="enable-background:new 0 0 50 50;" version="1.1" viewBox="0 0 50 50" width="50px" xml:space="preserve" xmlns="http://www.w3.org/2000/svg" xmlns:xlink="http://www.w3.org/1999/xlink"><style type="text/css">
	.st0{fill:#374163;}
</style><g><path class="st0" d="M40.34637,50H9.65733c-2.75026,0-4.99039-2.19023-4.99039-4.88134V21.83388   c0-2.79832,2.19207-4.98854,4.99039-4.98854h30.68904c2.79462,0,4.98669,2.19023,4.98669,4.98854v23.28478   C45.33306,47.80977,43.09663,50,40.34637,50z M9.65733,21.45867c-0.22919,0-0.37705,0.14786-0.37705,0.3752v23.28478   c0,0.09611,0.12568,0.268,0.37705,0.268h30.68904c0.23288,0,0.37336-0.1571,0.37336-0.268V21.83388   c0-0.22734-0.14787-0.3752-0.37336-0.3752H9.65733z"/><path class="st0" d="M36.26904,21.45867c-1.27532,0-2.30667-1.0332-2.30667-2.30667V7.02721   c0-1.30859-1.10528-2.41387-2.41387-2.41387H18.4552c-1.30859,0-2.41387,1.10528-2.41387,2.41387V19.152   c0,1.27347-1.03135,2.30667-2.30667,2.30667s-2.30667-1.0332-2.30667-2.30667V7.02721C11.42799,3.15134,14.58118,0,18.4552,0   h13.0933c3.87402,0,7.02721,3.15134,7.02721,7.02721V19.152C38.57571,20.42548,37.54436,21.45867,36.26904,21.45867z"/><path class="st0" d="M25.00185,38.0896c-1.27532,0-2.30667-1.03319-2.30667-2.30667V31.0624   c0-1.27347,1.03135-2.30667,2.30667-2.30667s2.30667,1.0332,2.30667,2.30667v4.72054   C27.30852,37.05641,26.27717,38.0896,25.00185,38.0896z"/></g></svg>