<?xml version="1.0" encoding="iso-8859-1"?>
<!-- Generator: Adobe Illustrator 19.0.0, SVG Export Plug-In . SVG Version: 6.00 Build 0)  -->
<svg xmlns="http://www.w3.org/2000/svg" xmlns:xlink="http://www.w3.org/1999/xlink" version="1.1" id="Capa_1" x="0px" y="0px" viewBox="0 0 298 298" style="enable-background:new 0 0 298 298;" xml:space="preserve" width="512px" height="512px">
<g>
	<path d="M231,8c0-4.418-3.582-8-8-8H75c-4.418,0-8,3.582-8,8v282c0,4.418,3.582,8,8,8h148c4.418,0,8-3.582,8-8V8z M182.542,207   c3.092,0,5.907,1.782,7.23,4.577c1.323,2.795,0.917,6.102-1.043,8.493l-33.209,40.528c-1.519,1.854-3.79,2.93-6.188,2.93   c-2.397,0-4.669-1.075-6.188-2.93l-33.209-40.528c-1.96-2.392-2.366-5.698-1.043-8.493c1.323-2.795,4.139-4.577,7.23-4.577H133v-51   c0-4.418,3.915-8,8.333-8h16c4.418,0,7.667,3.582,7.667,8v51H182.542z M149.332,123.691c-23.018,0-41.678-18.661-41.678-41.68   c0-23.019,18.66-41.679,41.678-41.679c23.02,0,41.68,18.66,41.68,41.679C191.012,105.03,172.352,123.691,149.332,123.691z" fill="#3f90b8"/>
</g>
<g>
</g>
<g>
</g>
<g>
</g>
<g>
</g>
<g>
</g>
<g>
</g>
<g>
</g>
<g>
</g>
<g>
</g>
<g>
</g>
<g>
</g>
<g>
</g>
<g>
</g>
<g>
</g>
<g>
</g>
</svg>
